<svg id="LOGO_SAFE_ON" xmlns="http://www.w3.org/2000/svg" width="341.649" height="77.401" viewBox="0 0 341.649 77.401">
  <g id="Calque_1" data-name="Calque 1" transform="translate(0 0)">
    <path id="Tracé_36" data-name="Tracé 36" d="M863.91,125.331V99.172a11.6,11.6,0,0,0-.917-4.714,12.333,12.333,0,0,0-2.637-3.8,15.432,15.432,0,0,0-9.529-4.055c-.54-.069-1.1-.118-1.674-.154s-1.133-.049-1.671-.049a37.517,37.517,0,0,0-4.006.2c-1.254.134-2.417.3-3.5.5v38.227h-14.3V76.357l4.868-1.723c.069,0,.557-.134,1.471-.406s2.109-.557,3.6-.862,3.243-.59,5.274-.861a50.263,50.263,0,0,1,6.591-.406h2.293a14.213,14.213,0,0,1,2.382.206,32.946,32.946,0,0,1,9.886,2.532,26.237,26.237,0,0,1,8.268,5.569,27.214,27.214,0,0,1,5.811,8.366,23.859,23.859,0,0,1,2.07,10.4v20.682q0,2.437.1,5.477Z" transform="translate(-555.217 -48.485)" fill="red"/>
    <path id="Tracé_37" data-name="Tracé 37" d="M699.381,88.836a27.649,27.649,0,0,0-5.621-8.517,26.749,26.749,0,0,0-37.88-.092,26.954,26.954,0,0,0-5.824,29.464,26.767,26.767,0,0,0,5.722,8.517,27.434,27.434,0,0,0,8.517,5.772,26.638,26.638,0,0,0,20.856,0,27.5,27.5,0,0,0,8.516-5.772,26.818,26.818,0,0,0,5.723-8.517,27.221,27.221,0,0,0,0-20.856m-13.161,15.34a12.447,12.447,0,0,1-6.682,6.682,12.24,12.24,0,0,1-4.812.96,12.087,12.087,0,0,1-4.858-.96,12.477,12.477,0,0,1-7.6-11.6,11.957,11.957,0,0,1,1.012-4.913,13.7,13.7,0,0,1,2.683-4,11.914,11.914,0,0,1,3.937-2.666,12.507,12.507,0,0,1,4.914-.96,12.14,12.14,0,0,1,11.393,7.593,12.919,12.919,0,0,1,.96,4.959,12.549,12.549,0,0,1-.96,4.913" transform="translate(-435.725 -48.706)" fill="red"/>
    <path id="Tracé_38" data-name="Tracé 38" d="M992.413,66.706H990.9V65.32h4.694v1.386h-1.517v4.019h-1.664Z" transform="translate(-666.317 -43.926)"/>
    <path id="Tracé_39" data-name="Tracé 39" d="M1007.53,65.32h2.372l.77,3.181h0l.773-3.181h2.369v5.4h-1.543V67.259h0l-.983,3.466h-1.242l-.937-3.466h0v3.466h-1.576Z" transform="translate(-677.5 -43.926)"/>
    <path id="Tracé_40" data-name="Tracé 40" d="M985.846,61.232a11.2,11.2,0,1,1,11.186-11.2A11.2,11.2,0,0,1,985.846,61.232Zm0-19.913a8.72,8.72,0,1,0,8.716,8.71A8.72,8.72,0,0,0,985.846,41.32Z" transform="translate(-655.383 -26.12)"/>
    <path id="Tracé_41" data-name="Tracé 41" d="M26.657,59.622c2.761.029,5.126.151,7.183-.789A7.839,7.839,0,0,0,38.1,53.874a6.6,6.6,0,0,0,.3-3.017,5.749,5.749,0,0,0-.983-2.372,8.451,8.451,0,0,0-1.91-1.893q-1.156-.845-2.293-1.536-1.071-.57-2.66-1.523l-3.3-1.988q-1.7-1.032-3.338-1.995t-2.778-1.638a24.836,24.836,0,0,1-5.139-4.17,19.6,19.6,0,0,1-5.372-11.972,17.967,17.967,0,0,1,.937-7.206,21.619,21.619,0,0,1,3.708-6.948,20.686,20.686,0,0,1,5.621-4.877,19.821,19.821,0,0,1,7.1-2.483,23.028,23.028,0,0,1,8.045.236A43.775,43.775,0,0,1,46.557,4.176a49.989,49.989,0,0,1,8.6,5.329L52.04,22q-2.555-1.549-5.307-2.892T41.4,16.711a43.964,43.964,0,0,0-4.913-1.677,15.556,15.556,0,0,0-3.931-.629,7.158,7.158,0,0,0-4.635,1.327,6.994,6.994,0,0,0-2.372,3.6,5.329,5.329,0,0,0,.655,4.258,14.145,14.145,0,0,0,4.949,4.121l3.1,1.785q1.238.717,2.218,1.261t1.906,1.084c.622.357,1.4.822,2.339,1.392A38.607,38.607,0,0,1,46.036,37.1a22.212,22.212,0,0,1,4.507,5.277,17.361,17.361,0,0,1,2.365,6.767,18.21,18.21,0,0,1-1.022,8.353,24.793,24.793,0,0,1-3.914,7.38,23.689,23.689,0,0,1-6.348,5.759,23.283,23.283,0,0,1-8.376,3.128c-3.112.56-9.925.6-13.594.632-4.737.02-6.646.026-10.633,0H0V59.547c2.571.033,7.206,0,9.417,0,2.552,0,5.051.029,7.154,0,2.191-.029,3.551-.029,5.434,0C23.942,59.576,25.317,59.622,26.657,59.622Z" transform="translate(0 -0.009)"/>
    <path id="Tracé_42" data-name="Tracé 42" d="M469.255,106.981a31.88,31.88,0,0,0,4.766-.328q2.293-.344,5.159-.934l2.752,13.561q-3.341.786-6.142,1.179a47.606,47.606,0,0,1-6.551.393q-1.081,0-2.211-.049t-2.211-.147a32.125,32.125,0,0,1-9.68-2.457,25.411,25.411,0,0,1-8.009-5.4,26.321,26.321,0,0,1-5.65-8.107,23.1,23.1,0,0,1-2.014-10.073,25.8,25.8,0,0,1,1.965-10.023,26.579,26.579,0,0,1,5.356-8.255,25.721,25.721,0,0,1,8.074-5.677,24.138,24.138,0,0,1,10.073-2.113h.983a22.687,22.687,0,0,1,9.286,2.26,23.257,23.257,0,0,1,7.016,5.218,25.817,25.817,0,0,1,4.52,6.928,19.608,19.608,0,0,1,1.671,8.009,19.3,19.3,0,0,1-.295,3.538,21.028,21.028,0,0,1-.688,2.752,12.006,12.006,0,0,1-.983,2.457H454.5a13.072,13.072,0,0,0,6.289,5.8A14.845,14.845,0,0,0,466,106.785q.786.1,1.638.147T469.255,106.981Zm-12.48-21.226a6.851,6.851,0,0,0-1.032,1.31,12.321,12.321,0,0,0-.934,2.113H474.07a8.236,8.236,0,0,0-.786-2.26,9.653,9.653,0,0,0-1.179-1.671,9.528,9.528,0,0,0-2.948-2.162,9.987,9.987,0,0,0-3.832-.884h-.2q0-.1-.2-.1A11.638,11.638,0,0,0,456.775,85.755Z" transform="translate(-295.505 -46.097)"/>
    <path id="Tracé_43" data-name="Tracé 43" d="M352.4,63.576l-14.167-.049-6.623,26.565H317.52l11.687-47.6a22.851,22.851,0,0,1,4.367-9.172,26.37,26.37,0,0,1,7.445-6.5,25.431,25.431,0,0,1,9.087-3.321A32,32,0,0,1,360,23.436a14.177,14.177,0,0,1,2.293.367l2.145.537L361.07,37.8,359.5,37.4a13.648,13.648,0,0,0-1.6-.3,14.613,14.613,0,0,0-9.938,1.674,12.273,12.273,0,0,0-3.358,2.909,21.424,21.424,0,0,0-3.007,5.365l-.626,2.827,14.793.262" transform="translate(-213.512 -15.525)"/>
    <path id="Tracé_44" data-name="Tracé 44" d="M595.118,129.87h0a21.064,21.064,0,0,1-1.618,12.572h15.068a31.687,31.687,0,0,1-.089-12.572Z" transform="translate(-399.091 -87.332)"/>
    <path id="Tracé_45" data-name="Tracé 45" d="M219.464,74.246V121.71H205.509v-1.775c-3.082.983-6.718,2.463-10.908,2.463a25.321,25.321,0,0,1-10.154-2.064,26.385,26.385,0,0,1-13.905-13.856,24.973,24.973,0,0,1-2.064-10.122,24.628,24.628,0,0,1,2.064-10.073,25.642,25.642,0,0,1,5.6-8.107,28.223,28.223,0,0,1,17.688-7.862q1.179-.1,2.293-.147t2.211-.049a48.456,48.456,0,0,1,6.387.393q2.948.393,5.11.835c1.438.295,2.588.573,3.439.835a9.674,9.674,0,0,0,1.474.393ZM205.509,84.663c-.983-.2-2.1-.36-3.341-.491a36.6,36.6,0,0,0-3.833-.2q-.793,0-1.621.049t-1.638.147a14.973,14.973,0,0,0-9.237,3.931,11.986,11.986,0,0,0-2.555,3.685,12.474,12.474,0,0,0-.983,4.569,11.6,11.6,0,0,0,.983,4.766,12.359,12.359,0,0,0,6.437,6.437,11.59,11.59,0,0,0,4.766.983,23.654,23.654,0,0,0,6.83-.786,13.483,13.483,0,0,0,4.176-2.064Z" transform="translate(-113.29 -47.153)"/>
  </g>
</svg>
