<svg id="LOGO_SAFE_ON_BLC" xmlns="http://www.w3.org/2000/svg" width="333.63" height="75.584" viewBox="0 0 333.63 75.584">
  <g id="Calque_1" data-name="Calque 1" transform="translate(0 0)">
    <path id="Tracé_46" data-name="Tracé 46" d="M863.013,124.082V98.537a11.32,11.32,0,0,0-.9-4.6,12.041,12.041,0,0,0-2.575-3.714,15.069,15.069,0,0,0-9.305-3.96c-.528-.067-1.072-.115-1.635-.15s-1.107-.048-1.631-.048a36.633,36.633,0,0,0-3.912.2c-1.225.131-2.361.3-3.416.493v37.329H825.68V76.257l4.753-1.683c.067,0,.544-.131,1.436-.4s2.06-.544,3.519-.841,3.167-.576,5.15-.841a49.087,49.087,0,0,1,6.436-.4h2.239a13.875,13.875,0,0,1,2.326.2,32.169,32.169,0,0,1,9.654,2.473,25.617,25.617,0,0,1,8.074,5.438,26.569,26.569,0,0,1,5.675,8.17,23.3,23.3,0,0,1,2.022,10.156v20.2q0,2.38.1,5.348Z" transform="translate(-561.566 -49.039)" fill="#fff"/>
    <path id="Tracé_47" data-name="Tracé 47" d="M698.175,88.451a27,27,0,0,0-5.489-8.317,26.121,26.121,0,0,0-36.99-.09,26.321,26.321,0,0,0-5.687,28.773,26.139,26.139,0,0,0,5.588,8.317,26.788,26.788,0,0,0,8.317,5.636,26.012,26.012,0,0,0,20.366,0,26.85,26.85,0,0,0,8.317-5.636,26.187,26.187,0,0,0,5.588-8.317,26.581,26.581,0,0,0,0-20.366m-12.852,14.98a12.156,12.156,0,0,1-6.526,6.525,11.953,11.953,0,0,1-4.7.937,11.8,11.8,0,0,1-4.744-.937,12.184,12.184,0,0,1-7.418-11.324,11.675,11.675,0,0,1,.989-4.8,13.371,13.371,0,0,1,2.62-3.906,11.632,11.632,0,0,1,3.845-2.6,12.213,12.213,0,0,1,4.8-.937A11.854,11.854,0,0,1,685.322,93.8a12.61,12.61,0,0,1,.937,4.843,12.248,12.248,0,0,1-.937,4.8" transform="translate(-440.707 -49.262)" fill="#fff"/>
    <path id="Tracé_48" data-name="Tracé 48" d="M992.378,66.673H990.9V65.32h4.584v1.353H994V70.6h-1.625Z" transform="translate(-673.935 -44.428)"/>
    <path id="Tracé_49" data-name="Tracé 49" d="M1007.53,65.32h2.316l.752,3.106h0l.755-3.106h2.313V70.6h-1.507V67.214h0L1011.2,70.6h-1.212l-.915-3.384h0V70.6h-1.539Z" transform="translate(-685.246 -44.428)"/>
    <path id="Tracé_50" data-name="Tracé 50" d="M985.583,60.707a10.933,10.933,0,1,1,10.924-10.94A10.933,10.933,0,0,1,985.583,60.707Zm0-19.445a8.515,8.515,0,1,0,8.512,8.505A8.515,8.515,0,0,0,985.583,41.261Z" transform="translate(-662.877 -26.419)"/>
    <path id="Tracé_51" data-name="Tracé 51" d="M26.031,58.223c2.7.029,5.006.147,7.015-.771A7.655,7.655,0,0,0,37.2,52.609a6.446,6.446,0,0,0,.291-2.946,5.614,5.614,0,0,0-.96-2.316A8.253,8.253,0,0,0,34.671,45.5q-1.129-.825-2.239-1.5-1.046-.557-2.6-1.487L26.61,40.569q-1.66-1.008-3.26-1.948t-2.713-1.6A24.253,24.253,0,0,1,15.62,32.95a19.141,19.141,0,0,1-5.246-11.691,17.545,17.545,0,0,1,.915-7.037,21.112,21.112,0,0,1,3.621-6.785A20.2,20.2,0,0,1,20.4,2.674,19.356,19.356,0,0,1,27.33.249a22.487,22.487,0,0,1,7.856.23,42.748,42.748,0,0,1,10.278,3.6,48.816,48.816,0,0,1,8.394,5.2l-3.039,12.2q-2.5-1.513-5.182-2.825t-5.2-2.338a42.932,42.932,0,0,0-4.8-1.638,15.191,15.191,0,0,0-3.839-.614,6.99,6.99,0,0,0-4.526,1.3,6.829,6.829,0,0,0-2.316,3.519,5.2,5.2,0,0,0,.64,4.158,13.813,13.813,0,0,0,4.833,4.024l3.026,1.743q1.209.7,2.166,1.232T37.48,31.1c.608.349,1.366.8,2.284,1.359a37.7,37.7,0,0,1,5.192,3.768,21.691,21.691,0,0,1,4.4,5.153,16.953,16.953,0,0,1,2.31,6.609,17.782,17.782,0,0,1-1,8.157,24.211,24.211,0,0,1-3.823,7.207,23.133,23.133,0,0,1-6.2,5.623,22.737,22.737,0,0,1-8.179,3.055c-3.039.547-9.692.589-13.275.617-4.625.019-6.49.026-10.383,0H0V58.15c2.511.032,7.037,0,9.2,0,2.492,0,4.932.029,6.986,0,2.14-.029,3.467-.029,5.307,0C23.38,58.178,24.723,58.223,26.031,58.223Z" transform="translate(0 -0.009)"/>
    <path id="Tracé_52" data-name="Tracé 52" d="M468.555,106.079a31.132,31.132,0,0,0,4.654-.32q2.239-.336,5.038-.912l2.687,13.243q-3.263.768-6,1.152a46.5,46.5,0,0,1-6.4.384q-1.056,0-2.159-.048t-2.159-.144a31.369,31.369,0,0,1-9.452-2.4,24.813,24.813,0,0,1-7.821-5.278,25.705,25.705,0,0,1-5.518-7.917A22.553,22.553,0,0,1,439.463,94a25.193,25.193,0,0,1,1.919-9.788,25.954,25.954,0,0,1,5.23-8.061,25.12,25.12,0,0,1,7.885-5.543,23.571,23.571,0,0,1,9.836-2.063h.96a22.154,22.154,0,0,1,9.068,2.207,22.713,22.713,0,0,1,6.852,5.1,25.214,25.214,0,0,1,4.414,6.765,19.146,19.146,0,0,1,1.631,7.821,18.84,18.84,0,0,1-.288,3.455,20.54,20.54,0,0,1-.672,2.687,11.726,11.726,0,0,1-.96,2.4H454.151a12.766,12.766,0,0,0,6.142,5.662,14.5,14.5,0,0,0,5.086,1.247q.768.1,1.6.144T468.555,106.079ZM456.368,85.351a6.694,6.694,0,0,0-1.008,1.279,12.047,12.047,0,0,0-.912,2.063h18.809a8.044,8.044,0,0,0-.768-2.207,9.418,9.418,0,0,0-1.151-1.631,9.307,9.307,0,0,0-2.879-2.111,9.753,9.753,0,0,0-3.742-.864h-.192q0-.1-.192-.1A11.365,11.365,0,0,0,456.368,85.351Z" transform="translate(-298.884 -46.624)"/>
    <path id="Tracé_53" data-name="Tracé 53" d="M351.58,62.626l-13.835-.048-6.468,25.942H317.52l11.413-46.478a22.314,22.314,0,0,1,4.264-8.957,25.753,25.753,0,0,1,7.271-6.35,24.835,24.835,0,0,1,8.873-3.244,31.249,31.249,0,0,1,9.66-.064,13.842,13.842,0,0,1,2.239.358l2.1.525-3.288,13.14-1.535-.384a13.329,13.329,0,0,0-1.561-.291,14.27,14.27,0,0,0-9.7,1.635,11.985,11.985,0,0,0-3.279,2.84,20.919,20.919,0,0,0-2.936,5.24l-.611,2.761,14.445.256" transform="translate(-215.953 -15.703)"/>
    <path id="Tracé_54" data-name="Tracé 54" d="M595.08,129.87h0a20.57,20.57,0,0,1-1.58,12.277h14.714a30.942,30.942,0,0,1-.086-12.277Z" transform="translate(-403.654 -88.331)"/>
    <path id="Tracé_55" data-name="Tracé 55" d="M218.267,74.149V120.5H204.64v-1.734c-3.01.96-6.561,2.405-10.652,2.405a24.726,24.726,0,0,1-9.916-2.015,25.766,25.766,0,0,1-13.579-13.531,24.388,24.388,0,0,1-2.015-9.884,24.052,24.052,0,0,1,2.015-9.836,25.041,25.041,0,0,1,5.47-7.917,27.561,27.561,0,0,1,17.273-7.677q1.152-.1,2.239-.144t2.159-.048a47.319,47.319,0,0,1,6.238.384q2.879.384,4.99.816c1.4.288,2.527.56,3.359.816a9.444,9.444,0,0,0,1.439.384ZM204.64,84.321c-.96-.192-2.05-.352-3.263-.48a35.734,35.734,0,0,0-3.743-.192q-.774,0-1.583.048t-1.6.144a14.621,14.621,0,0,0-9.02,3.839,11.7,11.7,0,0,0-2.5,3.6,12.18,12.18,0,0,0-.96,4.462,11.33,11.33,0,0,0,.96,4.654,12.069,12.069,0,0,0,6.286,6.286,11.317,11.317,0,0,0,4.654.96,23.1,23.1,0,0,0,6.669-.768,13.167,13.167,0,0,0,4.078-2.015Z" transform="translate(-114.586 -47.692)"/>
  </g>
</svg>
