<svg id="LOGO_FLEX_ON_BLANC" xmlns="http://www.w3.org/2000/svg" width="227.53" height="262.726" viewBox="0 0 227.53 262.726">
  <g id="PERSONALIZATION">
    <path id="Tracé_12" data-name="Tracé 12" d="M227.53,197.039V65.687L113.754,0,0,65.687V197.039l113.754,65.687Z" fill="#fff"/>
    <path id="Tracé_13" data-name="Tracé 13" d="M109.587,248.844l-.46-.263L3.56,187.732V65.288l.46-.263L109.587,4.11l.46.263L215.571,65.288V187.732l-.46.263ZM5.4,186.593,109.587,246.83l104.079-60.237V66.361L109.587,6.233,5.4,66.361Z" transform="translate(4.232 4.886)"/>
    <path id="Tracé_14" data-name="Tracé 14" d="M23.994,75.212H35.2l3.064-7.6H26.992l.9-1.9c3.13-7.092,10-9.259,17.686-9.653l.679-1.664a14.228,14.228,0,0,1,5.472-6.567H50.347C28.459,47.83,22,55.6,17.23,67.53l-9.39,22.9H17.952Z" transform="translate(9.32 56.862)"/>
    <path id="Tracé_15" data-name="Tracé 15" d="M101.938,85.077V69.011a7.158,7.158,0,0,0-.547-2.889,7.639,7.639,0,0,0-1.62-2.342,9.806,9.806,0,0,0-2.583-1.664,9.413,9.413,0,0,0-3.305-.81H89.374a12,12,0,0,0-2.189.328V85.077H78.43V55.025l3-1.051.9-.241c.569-.175,1.291-.35,2.189-.547s1.992-.35,3.239-.525A33.035,33.035,0,0,1,91.8,52.42h1.4a8.251,8.251,0,0,1,1.445.131,20.094,20.094,0,0,1,6.085,1.554,15.738,15.738,0,0,1,5.209,3.415,16.373,16.373,0,0,1,3.59,5.122,14.644,14.644,0,0,1,1.182,6.37V85.056Z" transform="translate(93.241 62.319)"/>
    <path id="Tracé_16" data-name="Tracé 16" d="M93.661,62.507a16.7,16.7,0,0,0-3.371-5.231A15.672,15.672,0,0,0,85.1,53.751a16.533,16.533,0,0,0-18.058,3.5A17.379,17.379,0,0,0,63.433,62.4a15.957,15.957,0,0,0-1.291,6.567,16.132,16.132,0,0,0,1.27,6.413,16.417,16.417,0,0,0,3.5,5.209,17.007,17.007,0,0,0,5.231,3.546,16.263,16.263,0,0,0,12.8,0,17.16,17.16,0,0,0,5.209-3.546,16.482,16.482,0,0,0,3.5-18.014m-8.077,9.412a7.639,7.639,0,0,1-7.048,4.684,7.442,7.442,0,0,1-2.977-.591,7.683,7.683,0,0,1-2.43-1.642,7.529,7.529,0,0,1-1.642-2.451,7.661,7.661,0,0,1-.591-3.021,7.2,7.2,0,0,1,.613-3,8.339,8.339,0,0,1,1.664-2.473,7.354,7.354,0,0,1,2.408-1.642,7.748,7.748,0,0,1,3.021-.591,7.574,7.574,0,0,1,2.955.591,8.011,8.011,0,0,1,2.43,1.62,7.551,7.551,0,0,1,1.6,2.452,7.923,7.923,0,0,1,.591,3.042,7.661,7.661,0,0,1-.591,3.021" transform="translate(73.873 62.366)"/>
    <path id="Tracé_17" data-name="Tracé 17" d="M60.49,58.28,56.2,62.045,59,65.9h8.274a18.5,18.5,0,0,1-.416-3.852,18.978,18.978,0,0,1,.35-3.721Z" transform="translate(66.813 69.286)"/>
    <path id="Tracé_18" data-name="Tracé 18" d="M32.365,55.252l-.263.679L21.837,81.058A6.917,6.917,0,0,0,28.25,90.58H49.066a17.774,17.774,0,0,1-4.093-2.955,19.131,19.131,0,0,1-3.327-4.378c-.153-.263-.285-.525-.416-.81H35.32a2.649,2.649,0,0,1-2.189-3.874l8.93-22.742,3.2-8.011H43.462a12,12,0,0,0-11.1,7.442Z" transform="translate(25.355 56.838)"/>
    <path id="Tracé_19" data-name="Tracé 19" d="M30.7,68.976a14.84,14.84,0,0,0,.963,5.582v.175l.241.591a14.708,14.708,0,0,0,.876,1.642,15.956,15.956,0,0,0,2.692,3.458,16.263,16.263,0,0,0,5.034,3.415q.788.328,1.576.591a22.062,22.062,0,0,0,2.933.722,12.762,12.762,0,0,0,1.6.219H52.24l1.27-.131H65.067L74.391,76.9l1.817-1.642,1.445,1.97,5.8,8.011h11.6L86.3,73.113l-1.62-2.189-1.423-1.97,1.817-1.62,2.189-1.882,13.505-12.1h-12.5l-8.055,7.267L78.4,62.256l-1.423-1.992-4.991-6.917H60.229l9.7,13.33,1.423,1.97-1.817,1.642-10.594,9.3-2.189,1.882-.569-2.758-.569-2.867c-1.2.263-2.189.46-3.261.591a19.153,19.153,0,0,1-3,.219H47.315a9.455,9.455,0,0,1-1.992-.328,11.209,11.209,0,0,1-1.291-.46,8.47,8.47,0,0,1-2.539-1.751,8.756,8.756,0,0,1-1.423-1.9H60.186a7.2,7.2,0,0,0,.635-1.554,13.423,13.423,0,0,0,.416-1.729,11.449,11.449,0,0,0,.2-2.189,12.279,12.279,0,0,0-1.051-5.034,16.373,16.373,0,0,0-2.846-4.378,14.885,14.885,0,0,0-3.458-2.758l-.832-.7A14.556,14.556,0,0,0,47.4,52.45h-.722a14.994,14.994,0,0,0-6.348,1.335l-.372.175a16.263,16.263,0,0,0-4.706,3.393,16.722,16.722,0,0,0-3.371,5.188A16.219,16.219,0,0,0,30.7,68.976Zm10.244-4.75a4.99,4.99,0,0,1,.657-.832,7.223,7.223,0,0,1,5.144-2.189h.131a6.085,6.085,0,0,1,3.9,1.554l.372.372a5.735,5.735,0,0,1,.744,1.051,5.122,5.122,0,0,1,.5,1.423H40.377a8.338,8.338,0,0,1,.569-1.488Z" transform="translate(36.495 62.354)"/>
    <path id="Tracé_20" data-name="Tracé 20" d="M99.013,63.106a6.873,6.873,0,1,1,6.873-6.873A6.873,6.873,0,0,1,99.013,63.106Zm0-12.214a5.363,5.363,0,1,0,5.341,5.341A5.363,5.363,0,0,0,99.013,50.892Z" transform="translate(109.54 58.681)"/>
    <path id="Tracé_21" data-name="Tracé 21" d="M94.549,52.632H93.63V51.8H96.5v.832h-.919v2.473H94.549Z" transform="translate(111.311 61.582)"/>
    <path id="Tracé_22" data-name="Tracé 22" d="M95.16,51.8H96.6l.482,1.948h0l.482-1.948h1.445v3.305h-.963V52.916h0l-.591,2.189h-.766l-.569-2.189h0v2.189H95.16Z" transform="translate(113.13 61.582)"/>
  </g>
</svg>
