<svg id="PICTO_INSTA" xmlns="http://www.w3.org/2000/svg" width="52.572" height="52.572" viewBox="0 0 52.572 52.572">
  <g id="Capa_1" data-name="Capa 1" transform="translate(0 0)">
    <path id="Tracé_24" data-name="Tracé 24" d="M25.12,30.386a5.293,5.293,0,1,0-4.235-8.331,5.187,5.187,0,0,0-1,3.07A5.293,5.293,0,0,0,25.12,30.386Z" transform="translate(1.177 1.161)" fill="#fff"/>
    <path id="Tracé_25" data-name="Tracé 25" d="M35.961,19.031V13.96h-.667l-4.4.011.021,5.071Z" transform="translate(1.822 0.819)" fill="#fff"/>
    <path id="Tracé_26" data-name="Tracé 26" d="M26.286,0A26.286,26.286,0,1,0,52.562,26.282,26.286,26.286,0,0,0,26.286,0ZM41.224,23.216V35.454a5.78,5.78,0,0,1-5.77,5.833H17.108a5.78,5.78,0,0,1-5.77-5.78V17.118a5.78,5.78,0,0,1,5.77-5.78H35.454a5.78,5.78,0,0,1,5.77,5.78Z" transform="translate(0.01 0)" fill="#fff"/>
    <path id="Tracé_27" data-name="Tracé 27" d="M33.669,25a8.183,8.183,0,1,1-15.752-3.07H13.46V34.168a2.858,2.858,0,0,0,2.858,2.858H34.664a2.858,2.858,0,0,0,2.858-2.858V21.93H33.087A8.183,8.183,0,0,1,33.669,25Z" transform="translate(0.8 1.286)" fill="#fff"/>
  </g>
</svg>
