<svg id="PICTO_YOUTUBE" xmlns="http://www.w3.org/2000/svg" width="52.932" height="52.932" viewBox="0 0 52.932 52.932">
  <g id="Capa_1" data-name="Capa 1" transform="translate(0)">
    <path id="Tracé_28" data-name="Tracé 28" d="M25.68,50.907h2.1V62.261h1.987V50.907H31.9V49.05H25.68Z" transform="translate(-11.77 -22.492)" fill="#fff"/>
    <path id="Tracé_29" data-name="Tracé 29" d="M53.611,52.3a2.409,2.409,0,0,0-1.841,1.083V49.05H50V62.267h1.787v-.958a2.436,2.436,0,0,0,1.841,1.083,1.419,1.419,0,0,0,1.429-1.083,7.867,7.867,0,0,0,.162-2V55.39a7.613,7.613,0,0,0-.179-1.982A1.419,1.419,0,0,0,53.611,52.3Zm-.179,7.147c0,.893-.26,1.332-.774,1.332a1.272,1.272,0,0,1-.888-.439v-6a1.289,1.289,0,0,1,.888-.433c.541,0,.774.455.774,1.343Z" transform="translate(-22.922 -22.492)" fill="#fff"/>
    <path id="Tracé_30" data-name="Tracé 30" d="M41,62.8c-.4.541-.769.834-1.126.834-.238,0-.374-.141-.417-.417a5.551,5.551,0,0,1,0-.693V55.27H37.667v7.786a5.008,5.008,0,0,0,.157,1.462,1.083,1.083,0,0,0,1.153.736,2.865,2.865,0,0,0,2.036-1.213v1.083H42.8V55.27H41.013Z" transform="translate(-17.265 -25.344)" fill="#fff"/>
    <path id="Tracé_31" data-name="Tracé 31" d="M45.921,32.587c.585,0,.861-.466.861-1.381V27.015c0-.92-.276-1.375-.861-1.375s-.861.455-.861,1.375v4.191C45.06,32.127,45.342,32.587,45.921,32.587Z" transform="translate(-20.657 -11.757)" fill="#fff"/>
    <path id="Tracé_32" data-name="Tracé 32" d="M26.461,0a26.466,26.466,0,1,0,26.46,26.464A26.467,26.467,0,0,0,26.461,0ZM29.4,12.377h1.8V19.7a4.3,4.3,0,0,0,0,.7c.043.276.184.422.422.422.363,0,.742-.282,1.142-.845V12.4h1.8v9.925H32.785V21.246a2.9,2.9,0,0,1-2.063,1.224,1.083,1.083,0,0,1-1.159-.736A4.927,4.927,0,0,1,29.4,20.25ZM22.59,15.626a3.866,3.866,0,0,1,.569-2.344,2.675,2.675,0,0,1,4.2,0,3.909,3.909,0,0,1,.541,2.344v3.487a3.888,3.888,0,0,1-.541,2.339,2.675,2.675,0,0,1-4.2,0,3.844,3.844,0,0,1-.569-2.339ZM17.771,8.983l1.419,5.241L20.57,8.977h2l-2.4,7.943v5.414h-2V16.92A33.831,33.831,0,0,0,16.948,12.7c-.422-1.24-.861-2.485-1.283-3.72ZM40.707,40.641a3.736,3.736,0,0,1-3.195,2.9,99.017,99.017,0,0,1-11.056.406A99.083,99.083,0,0,1,15.4,43.543a3.736,3.736,0,0,1-3.189-2.9,31.626,31.626,0,0,1-.514-6.979,31.631,31.631,0,0,1,.541-6.979,3.736,3.736,0,0,1,3.189-2.9,99.087,99.087,0,0,1,11.056-.406,99.015,99.015,0,0,1,11.056.406,3.736,3.736,0,0,1,3.195,2.9,30.066,30.066,0,0,1,.509,6.979,31.627,31.627,0,0,1-.536,6.979Z" transform="translate(0.01 0)" fill="#fff"/>
    <path id="Tracé_33" data-name="Tracé 33" d="M64.865,55.047A2.539,2.539,0,0,0,62.7,56.054a3.828,3.828,0,0,0-.541,2.317v3.454a3.79,3.79,0,0,0,.574,2.312A2.561,2.561,0,0,0,64.9,65.15a2.485,2.485,0,0,0,2.166-1.083,2.518,2.518,0,0,0,.417-1.083c0-.179.038-.574.038-1.153v-.254H65.7a11.671,11.671,0,0,1-.038,1.207.769.769,0,0,1-.8.715c-.612,0-.915-.455-.915-1.364v-1.7h3.574V58.371a3.866,3.866,0,0,0-.541-2.317A2.485,2.485,0,0,0,64.865,55.047Zm.872,3.882H63.955v-.915q0-1.364.893-1.364c.59,0,.888.455.888,1.364Z" transform="translate(-28.491 -25.24)" fill="#fff"/>
  </g>
</svg>
